<svg xmlns="http://www.w3.org/2000/svg" width="100" height="100" viewBox="0 0 100 100">
  <rect width="100" height="100" fill="white"/>
  <!-- QR Code Pattern - Simplified representation -->
  <g fill="#000">
    <!-- Position detection patterns -->
    <rect x="10" y="10" width="20" height="20"/>
    <rect x="13" y="13" width="14" height="14" fill="white"/>
    <rect x="16" y="16" width="8" height="8"/>
    
    <rect x="70" y="10" width="20" height="20"/>
    <rect x="73" y="13" width="14" height="14" fill="white"/>
    <rect x="76" y="16" width="8" height="8"/>
    
    <rect x="10" y="70" width="20" height="20"/>
    <rect x="13" y="73" width="14" height="14" fill="white"/>
    <rect x="16" y="76" width="8" height="8"/>
    
    <!-- Timing patterns -->
    <rect x="40" y="10" width="2" height="80"/>
    <rect x="10" y="40" width="80" height="2"/>
    
    <!-- Alignment pattern -->
    <rect x="60" y="60" width="10" height="10"/>
    <rect x="62" y="62" width="6" height="6" fill="white"/>
    <rect x="64" y="64" width="2" height="2"/>
    
    <!-- Data modules - Simplified representation -->
    <rect x="30" y="30" width="4" height="4"/>
    <rect x="38" y="30" width="4" height="4"/>
    <rect x="46" y="30" width="4" height="4"/>
    <rect x="54" y="30" width="4" height="4"/>
    <rect x="62" y="30" width="4" height="4"/>
    
    <rect x="30" y="38" width="4" height="4"/>
    <rect x="46" y="38" width="4" height="4"/>
    <rect x="54" y="38" width="4" height="4"/>
    
    <rect x="30" y="46" width="4" height="4"/>
    <rect x="38" y="46" width="4" height="4"/>
    <rect x="62" y="46" width="4" height="4"/>
    
    <rect x="38" y="54" width="4" height="4"/>
    <rect x="46" y="54" width="4" height="4"/>
    <rect x="54" y="54" width="4" height="4"/>
    
    <rect x="30" y="62" width="4" height="4"/>
    <rect x="38" y="62" width="4" height="4"/>
    <rect x="46" y="62" width="4" height="4"/>
    <rect x="54" y="62" width="4" height="4"/>
    
    <rect x="30" y="70" width="4" height="4"/>
    <rect x="46" y="70" width="4" height="4"/>
    <rect x="62" y="70" width="4" height="4"/>
    
    <rect x="38" y="78" width="4" height="4"/>
    <rect x="46" y="78" width="4" height="4"/>
    <rect x="54" y="78" width="4" height="4"/>
    <rect x="62" y="78" width="4" height="4"/>
    <rect x="70" y="78" width="4" height="4"/>
  </g>
</svg>