<svg width="32" height="32" viewBox="0 0 32 32" fill="none" xmlns="http://www.w3.org/2000/svg">
<g clip-path="url(#clip0_39_36)">
<g filter="url(#filter0_d_39_36)">
<mask id="mask0_39_36" style="mask-type:luminance" maskUnits="userSpaceOnUse" x="0" y="0" width="32" height="32">
<path d="M28.7752 0H3.2248C1.51229 0 0.124023 1.38826 0.124023 3.10078V28.6512C0.124023 30.3637 1.51229 31.7519 3.2248 31.7519H28.7752C30.4877 31.7519 31.876 30.3637 31.876 28.6512V3.10078C31.876 1.38826 30.4877 0 28.7752 0Z" fill="white"/>
</mask>
<g mask="url(#mask0_39_36)">
<path d="M28.7752 0H3.2248C1.51229 0 0.124023 1.38826 0.124023 3.10078V28.6512C0.124023 30.3637 1.51229 31.7519 3.2248 31.7519H28.7752C30.4877 31.7519 31.876 30.3637 31.876 28.6512V3.10078C31.876 1.38826 30.4877 0 28.7752 0Z" fill="#436850"/>
<path d="M19.8106 25.627H12.2102V12.3118H3.17383V6.13281H28.847V12.3118H19.8106V25.627Z" fill="white"/>
</g>
</g>
</g>
<defs>
<filter id="filter0_d_39_36" x="-3.87598" y="0" width="39.752" height="39.752" filterUnits="userSpaceOnUse" color-interpolation-filters="sRGB">
<feFlood flood-opacity="0" result="BackgroundImageFix"/>
<feColorMatrix in="SourceAlpha" type="matrix" values="0 0 0 0 0 0 0 0 0 0 0 0 0 0 0 0 0 0 127 0" result="hardAlpha"/>
<feOffset dy="4"/>
<feGaussianBlur stdDeviation="2"/>
<feComposite in2="hardAlpha" operator="out"/>
<feColorMatrix type="matrix" values="0 0 0 0 0 0 0 0 0 0 0 0 0 0 0 0 0 0 0.25 0"/>
<feBlend mode="normal" in2="BackgroundImageFix" result="effect1_dropShadow_39_36"/>
<feBlend mode="normal" in="SourceGraphic" in2="effect1_dropShadow_39_36" result="shape"/>
</filter>
<clipPath id="clip0_39_36">
<rect width="32" height="32" fill="white"/>
</clipPath>
</defs>
</svg>
