<svg width="220" height="24" viewBox="0 0 220 24" fill="none" xmlns="http://www.w3.org/2000/svg">
<g clip-path="url(#clip0_39_17)">
<mask id="mask0_39_17" style="mask-type:luminance" maskUnits="userSpaceOnUse" x="0" y="0" width="220" height="24">
<path d="M220 0H0V23.6328H220V0Z" fill="white"/>
</mask>
<g mask="url(#mask0_39_17)">
<path d="M20.3221 23.6503H11.1971V7.66414H0.348145V0.245723H31.1711V7.66414H20.3221V23.6503ZM47.8537 -0.36377C56.6653 -0.36377 63.8224 2.21351 63.8224 11.0599V12.7665C63.8574 21.6129 56.6479 24.1728 47.8537 24.1902C39.0423 24.1728 31.8328 21.6129 31.8676 12.7665V11.0599C31.8328 2.19611 39.0423 -0.346354 47.8537 -0.36377ZM54.6976 12.1918V11.6171C54.7498 7.80344 51.5804 7.10688 47.8537 7.05463C44.1099 7.10688 40.9405 7.80344 40.9927 11.6171V12.1918C40.9405 16.0229 44.1099 16.7195 47.8537 16.7717C51.5804 16.7195 54.7498 16.0229 54.6976 12.1918ZM84.5104 23.6503H75.3855V7.66414H64.5366V0.245723H95.3593V7.66414H84.5104V23.6503ZM107.288 7.0198L104.067 13.9332H110.492L107.288 7.0198ZM89.2992 23.6503L101.855 0.245723H112.704L125.259 23.6503H114.985L113.139 19.645H101.419L99.5737 23.6503H89.2992ZM125.973 0.210896H135.098V16.197H153.366V23.6154H125.973V0.210896Z" fill="white"/>
<path d="M164.116 9.66797V0.0429688H168.434C169.543 0.0429688 170.395 0.267552 170.991 0.716719C171.587 1.15672 171.885 1.76172 171.885 2.53172C171.885 3.05422 171.766 3.49422 171.527 3.85172C171.298 4.20922 170.987 4.48422 170.593 4.67672C170.198 4.86922 169.772 4.96547 169.314 4.96547L169.561 4.55297C170.111 4.55297 170.597 4.64922 171.019 4.84172C171.44 5.03422 171.775 5.31839 172.023 5.69422C172.27 6.06089 172.394 6.51922 172.394 7.06922C172.394 7.89422 172.082 8.53589 171.459 8.99422C170.845 9.44339 169.928 9.66797 168.709 9.66797H164.116ZM165.491 8.55422H168.654C169.415 8.55422 169.997 8.42589 170.4 8.16922C170.803 7.91255 171.005 7.50922 171.005 6.95922C171.005 6.40005 170.803 5.99214 170.4 5.73547C169.997 5.4788 169.415 5.35047 168.654 5.35047H165.367V4.23672H168.31C169.007 4.23672 169.547 4.10839 169.932 3.85172C170.317 3.59505 170.51 3.21005 170.51 2.69672C170.51 2.18339 170.317 1.79839 169.932 1.54172C169.547 1.28505 169.007 1.15672 168.31 1.15672H165.491V8.55422ZM175.76 9.66797V0.0429688H179.514C180.357 0.0429688 181.077 0.175886 181.673 0.441719C182.269 0.707552 182.727 1.09255 183.048 1.59672C183.369 2.10089 183.529 2.7013 183.529 3.39797C183.529 4.09464 183.369 4.69505 183.048 5.19922C182.727 5.69422 182.269 6.07464 181.673 6.34047C181.077 6.6063 180.357 6.73922 179.514 6.73922H176.517L177.135 6.10672V9.66797H175.76ZM182.195 9.66797L179.748 6.17547H181.219L183.694 9.66797H182.195ZM177.135 6.24422L176.517 5.57047H179.473C180.353 5.57047 181.017 5.38255 181.467 5.00672C181.925 4.62172 182.154 4.08547 182.154 3.39797C182.154 2.71047 181.925 2.1788 181.467 1.80297C181.017 1.42713 180.353 1.23922 179.473 1.23922H176.517L177.135 0.551719V6.24422ZM185.531 9.66797L189.889 0.0429688H191.251L195.623 9.66797H194.179L190.288 0.812969H190.838L186.947 9.66797H185.531ZM187.387 7.26172L187.758 6.16172H193.176L193.574 7.26172H187.387ZM198.296 9.66797V0.0429688H199.424L205.79 7.94922H205.199V0.0429688H206.574V9.66797H205.446L199.08 1.76172H199.671V9.66797H198.296ZM210.692 9.66797V0.0429688H214.749C215.776 0.0429688 216.678 0.244635 217.458 0.647969C218.245 1.0513 218.855 1.61505 219.287 2.33922C219.727 3.06339 219.946 3.90214 219.946 4.85547C219.946 5.8088 219.727 6.64755 219.287 7.37172C218.855 8.09589 218.245 8.65964 217.458 9.06297C216.678 9.4663 215.776 9.66797 214.749 9.66797H210.692ZM212.067 8.47172H214.666C215.465 8.47172 216.152 8.32047 216.728 8.01797C217.314 7.71547 217.77 7.2938 218.09 6.75297C218.41 6.20297 218.571 5.57047 218.571 4.85547C218.571 4.1313 218.41 3.4988 218.09 2.95797C217.77 2.41714 217.314 1.99547 216.728 1.69297C216.152 1.39047 215.465 1.23922 214.666 1.23922H212.067V8.47172ZM167.343 23.528C166.61 23.528 165.909 23.418 165.239 23.198C164.57 22.9687 164.043 22.6755 163.658 22.318L164.167 21.2455C164.534 21.5662 165.001 21.8322 165.569 22.043C166.138 22.2537 166.729 22.3592 167.343 22.3592C167.902 22.3592 168.356 22.295 168.704 22.1667C169.053 22.0385 169.309 21.8642 169.474 21.6442C169.639 21.415 169.722 21.1584 169.722 20.8742C169.722 20.5442 169.612 20.2784 169.392 20.0767C169.181 19.875 168.902 19.7146 168.553 19.5955C168.214 19.4671 167.838 19.3571 167.426 19.2655C167.013 19.1738 166.596 19.0684 166.174 18.9492C165.762 18.8209 165.382 18.6605 165.033 18.468C164.694 18.2755 164.419 18.0188 164.208 17.698C163.997 17.368 163.892 16.9463 163.892 16.433C163.892 15.938 164.02 15.4842 164.277 15.0717C164.543 14.65 164.946 14.3155 165.487 14.068C166.037 13.8113 166.734 13.683 167.577 13.683C168.136 13.683 168.691 13.7563 169.241 13.903C169.791 14.0496 170.267 14.2605 170.671 14.5355L170.217 15.6355C169.804 15.3605 169.369 15.1634 168.911 15.0442C168.452 14.9159 168.008 14.8517 167.577 14.8517C167.036 14.8517 166.592 14.9205 166.243 15.058C165.895 15.1955 165.638 15.3788 165.473 15.608C165.317 15.8371 165.239 16.0938 165.239 16.378C165.239 16.7171 165.345 16.9875 165.556 17.1892C165.776 17.3909 166.055 17.5513 166.394 17.6705C166.743 17.7896 167.123 17.8996 167.536 18.0005C167.948 18.0921 168.361 18.1975 168.773 18.3167C169.195 18.4359 169.575 18.5917 169.914 18.7842C170.263 18.9767 170.542 19.2334 170.753 19.5542C170.964 19.875 171.069 20.2875 171.069 20.7917C171.069 21.2775 170.937 21.7312 170.671 22.153C170.405 22.5655 169.992 22.9 169.433 23.1567C168.883 23.4042 168.187 23.528 167.343 23.528ZM175.405 23.418V14.9892H172.105V13.793H180.066V14.9892H176.766V23.418H175.405ZM185.927 23.528C184.662 23.528 183.667 23.166 182.943 22.4417C182.219 21.7175 181.857 20.6588 181.857 19.2655V13.793H183.232V19.2105C183.232 20.283 183.466 21.0667 183.933 21.5617C184.41 22.0567 185.079 22.3042 185.941 22.3042C186.812 22.3042 187.481 22.0567 187.948 21.5617C188.425 21.0667 188.663 20.283 188.663 19.2105V13.793H189.997V19.2655C189.997 20.6588 189.635 21.7175 188.911 22.4417C188.196 23.166 187.201 23.528 185.927 23.528ZM193.366 23.418V13.793H197.422C198.449 13.793 199.352 13.9946 200.131 14.398C200.919 14.8013 201.529 15.365 201.96 16.0892C202.4 16.8134 202.62 17.6521 202.62 18.6055C202.62 19.5588 202.4 20.3975 201.96 21.1217C201.529 21.846 200.919 22.4097 200.131 22.813C199.352 23.2162 198.449 23.418 197.422 23.418H193.366ZM194.741 22.2217H197.34C198.137 22.2217 198.825 22.0705 199.402 21.768C199.989 21.4655 200.443 21.0438 200.763 20.503C201.084 19.953 201.245 19.3205 201.245 18.6055C201.245 17.8813 201.084 17.2488 200.763 16.708C200.443 16.1671 199.989 15.7455 199.402 15.443C198.825 15.1405 198.137 14.9892 197.34 14.9892H194.741V22.2217ZM205.276 23.418V13.793H206.651V23.418H205.276ZM214.427 23.528C213.694 23.528 213.011 23.4042 212.379 23.1567C211.755 22.9092 211.215 22.5655 210.756 22.1255C210.298 21.6762 209.94 21.1538 209.684 20.558C209.427 19.9621 209.299 19.3113 209.299 18.6055C209.299 17.8996 209.427 17.2488 209.684 16.653C209.94 16.0571 210.298 15.5392 210.756 15.0992C211.215 14.65 211.755 14.3017 212.379 14.0542C213.002 13.8067 213.685 13.683 214.427 13.683C215.162 13.683 215.834 13.8067 216.449 14.0542C217.072 14.2925 217.613 14.6363 218.071 15.0855C218.539 15.5255 218.896 16.0434 219.143 16.6392C219.4 17.235 219.529 17.8905 219.529 18.6055C219.529 19.3205 219.4 19.9759 219.143 20.5717C218.896 21.1675 218.539 21.69 218.071 22.1392C217.613 22.5792 217.072 22.923 216.449 23.1705C215.834 23.4087 215.162 23.528 214.427 23.528ZM214.427 22.3042C214.96 22.3042 215.45 22.2125 215.899 22.0292C216.356 21.846 216.751 21.5892 217.08 21.2592C217.42 20.92 217.682 20.5259 217.864 20.0767C218.058 19.6275 218.154 19.1371 218.154 18.6055C218.154 18.0738 218.058 17.5834 217.864 17.1342C217.682 16.685 217.42 16.2955 217.08 15.9655C216.751 15.6263 216.356 15.365 215.899 15.1817C215.45 14.9984 214.96 14.9067 214.427 14.9067C213.887 14.9067 213.387 14.9984 212.929 15.1817C212.48 15.365 212.085 15.6263 211.746 15.9655C211.407 16.2955 211.141 16.685 210.949 17.1342C210.765 17.5834 210.674 18.0738 210.674 18.6055C210.674 19.1371 210.765 19.6275 210.949 20.0767C211.141 20.5259 211.407 20.92 211.746 21.2592C212.085 21.5892 212.48 21.846 212.929 22.0292C213.387 22.2125 213.887 22.3042 214.427 22.3042Z" fill="white"/>
</g>
</g>
<defs>
<clipPath id="clip0_39_17">
<rect width="220" height="23.6328" fill="white"/>
</clipPath>
</defs>
</svg>
