<svg width="120" height="13" viewBox="0 0 120 13" fill="none" xmlns="http://www.w3.org/2000/svg">
<g clip-path="url(#clip0_39_24)">
<mask id="mask0_39_24" style="mask-type:luminance" maskUnits="userSpaceOnUse" x="0" y="0" width="120" height="13">
<path d="M120 0H0V12.8906H120V0Z" fill="white"/>
</mask>
<g mask="url(#mask0_39_24)">
<path d="M11.0848 12.9001H6.10757V4.18037H0.189941V0.133964H17.0025V4.18037H11.0848V12.9001ZM26.1021 -0.198486C30.9084 -0.198486 34.8123 1.2073 34.8123 6.03259V6.96346C34.8314 11.7888 30.8989 13.1851 26.1021 13.1946C21.2959 13.1851 17.3634 11.7888 17.3824 6.96346V6.03259C17.3634 1.19781 21.2959 -0.188987 26.1021 -0.198486ZM29.8351 6.65V6.33655C29.8636 4.25636 28.1348 3.87641 26.1021 3.84791C24.06 3.87641 22.3312 4.25636 22.3597 6.33655V6.65C22.3312 8.73969 24.06 9.11964 26.1021 9.14814C28.1348 9.11964 29.8636 8.73969 29.8351 6.65ZM46.0966 12.9001H41.1194V4.18037H35.2018V0.133964H52.0142V4.18037H46.0966V12.9001ZM58.5208 3.82892L56.7636 7.59986H60.2686L58.5208 3.82892ZM48.7087 12.9001L55.5573 0.133964H61.4749L68.3233 12.9001H62.7192L61.7123 10.7154H55.3197L54.313 12.9001H48.7087ZM68.7129 0.114967H73.6901V8.83467H83.6542V12.8811H68.7129V0.114967Z" fill="white"/>
<path d="M89.5179 5.27344V0.0234375H91.8729C92.4779 0.0234375 92.943 0.145937 93.2679 0.390938C93.593 0.630938 93.7554 0.960938 93.7554 1.38094C93.7554 1.66594 93.6905 1.90594 93.5604 2.10094C93.4355 2.29594 93.2654 2.44594 93.0504 2.55094C92.8355 2.65594 92.603 2.70844 92.3529 2.70844L92.4879 2.48344C92.7879 2.48344 93.053 2.53594 93.2829 2.64094C93.513 2.74594 93.6954 2.90094 93.8304 3.10594C93.9654 3.30594 94.0329 3.55594 94.0329 3.85594C94.0329 4.30594 93.863 4.65594 93.5229 4.90594C93.188 5.15094 92.6879 5.27344 92.0229 5.27344H89.5179ZM90.2679 4.66594H91.9929C92.408 4.66594 92.7254 4.59594 92.9454 4.45594C93.1655 4.31593 93.2754 4.09594 93.2754 3.79594C93.2754 3.49093 93.1655 3.26844 92.9454 3.12844C92.7254 2.98843 92.408 2.91844 91.9929 2.91844H90.2004V2.31094H91.8054C92.1854 2.31094 92.4804 2.24094 92.6904 2.10094C92.9004 1.96093 93.0054 1.75093 93.0054 1.47094C93.0054 1.19094 92.9004 0.980938 92.6904 0.840938C92.4804 0.700937 92.1854 0.630938 91.8054 0.630938H90.2679V4.66594ZM95.8692 5.27344V0.0234375H97.9167C98.3767 0.0234375 98.7693 0.0959377 99.0942 0.240938C99.4192 0.385937 99.6693 0.595937 99.8442 0.870938C100.019 1.14594 100.107 1.47343 100.107 1.85344C100.107 2.23344 100.019 2.56093 99.8442 2.83594C99.6693 3.10594 99.4192 3.31344 99.0942 3.45844C98.7693 3.60343 98.3767 3.67594 97.9167 3.67594H96.2817L96.6192 3.33094V5.27344H95.8692ZM99.3792 5.27344L98.0442 3.36844H98.8467L100.197 5.27344H99.3792ZM96.6192 3.40594L96.2817 3.03844H97.8942C98.3742 3.03844 98.7367 2.93593 98.9817 2.73094C99.2317 2.52094 99.3567 2.22844 99.3567 1.85344C99.3567 1.47844 99.2317 1.18843 98.9817 0.983438C98.7367 0.778437 98.3742 0.675938 97.8942 0.675938H96.2817L96.6192 0.300938V3.40594ZM101.198 5.27344L103.576 0.0234375H104.318L106.703 5.27344H105.916L103.793 0.443438H104.093L101.971 5.27344H101.198ZM102.211 3.96094L102.413 3.36094H105.368L105.586 3.96094H102.211ZM108.162 5.27344V0.0234375H108.777L112.249 4.33594H111.927V0.0234375H112.677V5.27344H112.062L108.589 0.960938H108.912V5.27344H108.162ZM114.923 5.27344V0.0234375H117.136C117.696 0.0234375 118.188 0.133437 118.614 0.353438C119.042 0.573437 119.375 0.880937 119.611 1.27594C119.851 1.67094 119.971 2.12844 119.971 2.64844C119.971 3.16843 119.851 3.62593 119.611 4.02094C119.375 4.41594 119.042 4.72344 118.614 4.94344C118.188 5.16343 117.696 5.27344 117.136 5.27344H114.923ZM115.673 4.62094H117.091C117.526 4.62094 117.901 4.53844 118.215 4.37344C118.535 4.20844 118.783 3.97843 118.958 3.68344C119.133 3.38344 119.221 3.03844 119.221 2.64844C119.221 2.25343 119.133 1.90843 118.958 1.61344C118.783 1.31844 118.535 1.08844 118.215 0.923438C117.901 0.758438 117.526 0.675938 117.091 0.675938H115.673V4.62094ZM91.2781 12.8334C90.8781 12.8334 90.4956 12.7734 90.1306 12.6534C89.7656 12.5284 89.4781 12.3684 89.2681 12.1734L89.5456 11.5884C89.7456 11.7634 90.0006 11.9085 90.3106 12.0234C90.6206 12.1384 90.9431 12.1959 91.2781 12.1959C91.5831 12.1959 91.8306 12.1609 92.0206 12.0909C92.2106 12.021 92.3506 11.9259 92.4406 11.8059C92.5306 11.6809 92.5756 11.5409 92.5756 11.3859C92.5756 11.2059 92.5156 11.0609 92.3956 10.9509C92.2806 10.8409 92.1281 10.7534 91.9381 10.6884C91.7531 10.6184 91.5481 10.5584 91.3231 10.5084C91.0981 10.4584 90.8706 10.4009 90.6406 10.3359C90.4156 10.2659 90.2081 10.1784 90.0181 10.0734C89.8331 9.96844 89.6831 9.82843 89.5681 9.65344C89.4531 9.47344 89.3956 9.24343 89.3956 8.96344C89.3956 8.69344 89.4656 8.44594 89.6056 8.22094C89.7506 7.99093 89.9706 7.80844 90.2656 7.67344C90.5656 7.53343 90.9456 7.46344 91.4056 7.46344C91.7106 7.46344 92.0131 7.50343 92.3131 7.58344C92.6131 7.66344 92.8731 7.77844 93.0931 7.92844L92.8456 8.52844C92.6206 8.37844 92.3831 8.27094 92.1331 8.20594C91.8831 8.13594 91.6406 8.10094 91.4056 8.10094C91.1106 8.10094 90.8681 8.13844 90.6781 8.21344C90.4881 8.28844 90.3481 8.38843 90.2581 8.51344C90.1731 8.63844 90.1306 8.77843 90.1306 8.93344C90.1306 9.11844 90.1881 9.26593 90.3031 9.37594C90.4231 9.48594 90.5756 9.57343 90.7606 9.63844C90.9506 9.70344 91.1581 9.76344 91.3831 9.81844C91.6081 9.86844 91.8331 9.92593 92.0581 9.99094C92.2881 10.0559 92.4956 10.1409 92.6806 10.2459C92.8706 10.3509 93.0231 10.4909 93.1381 10.6659C93.2531 10.8409 93.3106 11.0659 93.3106 11.3409C93.3106 11.6059 93.2381 11.8534 93.0931 12.0834C92.9481 12.3084 92.7231 12.4909 92.4181 12.6309C92.1181 12.7659 91.7381 12.8334 91.2781 12.8334ZM95.6755 12.7734V8.17594H93.8755V7.52344H98.218V8.17594H96.418V12.7734H95.6755ZM101.415 12.8334C100.725 12.8334 100.182 12.636 99.7872 12.2409C99.3922 11.8459 99.1947 11.2684 99.1947 10.5084V7.52344H99.9447V10.4784C99.9447 11.0634 100.072 11.4909 100.327 11.7609C100.587 12.0309 100.952 12.1659 101.422 12.1659C101.897 12.1659 102.262 12.0309 102.517 11.7609C102.777 11.4909 102.907 11.0634 102.907 10.4784V7.52344H103.635V10.5084C103.635 11.2684 103.437 11.8459 103.042 12.2409C102.652 12.636 102.11 12.8334 101.415 12.8334ZM105.472 12.7734V7.52344H107.685C108.245 7.52344 108.737 7.63344 109.162 7.85344C109.592 8.07343 109.925 8.38093 110.16 8.77594C110.4 9.17094 110.52 9.62844 110.52 10.1484C110.52 10.6684 110.4 11.1259 110.16 11.5209C109.925 11.916 109.592 12.2235 109.162 12.4434C108.737 12.6634 108.245 12.7734 107.685 12.7734H105.472ZM106.222 12.1209H107.64C108.075 12.1209 108.45 12.0384 108.765 11.8734C109.085 11.7084 109.332 11.4784 109.507 11.1834C109.682 10.8834 109.77 10.5384 109.77 10.1484C109.77 9.75343 109.682 9.40843 109.507 9.11344C109.332 8.81844 109.085 8.58844 108.765 8.42344C108.45 8.25844 108.075 8.17594 107.64 8.17594H106.222V12.1209ZM111.969 12.7734V7.52344H112.719V12.7734H111.969ZM116.96 12.8334C116.56 12.8334 116.188 12.7659 115.843 12.6309C115.503 12.4959 115.208 12.3084 114.958 12.0684C114.708 11.8234 114.513 11.5384 114.373 11.2134C114.233 10.8884 114.163 10.5334 114.163 10.1484C114.163 9.76344 114.233 9.40843 114.373 9.08344C114.513 8.75844 114.708 8.47594 114.958 8.23594C115.208 7.99093 115.503 7.80094 115.843 7.66594C116.183 7.53094 116.555 7.46344 116.96 7.46344C117.361 7.46344 117.728 7.53094 118.063 7.66594C118.403 7.79593 118.698 7.98343 118.948 8.22844C119.203 8.46844 119.398 8.75094 119.532 9.07594C119.673 9.40093 119.743 9.75844 119.743 10.1484C119.743 10.5384 119.673 10.8959 119.532 11.2209C119.398 11.5459 119.203 11.8309 118.948 12.0759C118.698 12.3159 118.403 12.5034 118.063 12.6384C117.728 12.7684 117.361 12.8334 116.96 12.8334ZM116.96 12.1659C117.251 12.1659 117.518 12.1159 117.763 12.0159C118.012 11.916 118.228 11.7759 118.407 11.5959C118.592 11.4109 118.735 11.1959 118.835 10.9509C118.941 10.7059 118.993 10.4384 118.993 10.1484C118.993 9.85843 118.941 9.59094 118.835 9.34594C118.735 9.10093 118.592 8.88844 118.407 8.70844C118.228 8.52343 118.012 8.38093 117.763 8.28094C117.518 8.18094 117.251 8.13094 116.96 8.13094C116.665 8.13094 116.393 8.18094 116.143 8.28094C115.898 8.38093 115.683 8.52343 115.498 8.70844C115.313 8.88844 115.168 9.10093 115.063 9.34594C114.963 9.59094 114.913 9.85843 114.913 10.1484C114.913 10.4384 114.963 10.7059 115.063 10.9509C115.168 11.1959 115.313 11.4109 115.498 11.5959C115.683 11.7759 115.898 11.916 116.143 12.0159C116.393 12.1159 116.665 12.1659 116.96 12.1659Z" fill="white"/>
</g>
</g>
<defs>
<clipPath id="clip0_39_24">
<rect width="120" height="12.8906" fill="white"/>
</clipPath>
</defs>
</svg>
